<svg id="visual" viewBox="0 0 900 600" width="900" height="600" xmlns="http://www.w3.org/2000/svg" xmlns:xlink="http://www.w3.org/1999/xlink" version="1.1"><g transform="translate(377.42972906116256 343.44771288234006)"><path d="M256.8 -274.8C330.7 -244.1 386.9 -161.1 405.1 -69.7C423.3 21.7 403.5 121.6 341.4 166.9C279.3 212.2 174.9 202.9 98.8 199.3C22.7 195.8 -25.1 198 -92 197.5C-158.8 197.1 -244.8 194.1 -262.7 155.4C-280.6 116.7 -230.4 42.5 -193.4 -10.9C-156.3 -64.3 -132.4 -96.8 -102.4 -135.1C-72.3 -173.5 -36.2 -217.8 27.7 -250.7C91.5 -283.7 183 -305.4 256.8 -274.8" fill="#BB004B"></path></g></svg>